{"accessors" : [{"bufferView" : 0, "byteOffset" : 0, "componentType" : 5123, "count" : 8448, "type" : "SCALAR", "max" : [8447], "min" : [0]}, {"bufferView" : 1, "byteOffset" : 0, "componentType" : 5126, "count" : 8448, "type" : "VEC3", "max" : [0.7311229109764099, 0.7457965016365051, 1.9724305868148804], "min" : [-0.760420024394989, -0.7457965016365051, 1.8052935600280762]}, {"bufferView" : 1, "byteOffset" : 12, "componentType" : 5126, "count" : 8448, "type" : "VEC3", "max" : [0.583836019039154, 0.5904006958007812, 0.9999718070030212], "min" : [-0.5969169735908508, -0.5904006958007812, 0.8023083806037903]}, {"bufferView" : 1, "byteOffset" : 24, "componentType" : 5126, "count" : 8448, "type" : "VEC2", "max" : [0.979364275932312, -0.14094948768615723], "min" : [0.6518771648406982, -0.4683997929096222]}, {"bufferView" : 0, "byteOffset" : 16896, "componentType" : 5123, "count" : 3072, "type" : "SCALAR", "max" : [3071], "min" : [0]}, {"bufferView" : 2, "byteOffset" : 0, "componentType" : 5126, "count" : 3072, "type" : "VEC3", "max" : [0.7311276793479919, 0.7457964420318604, 1.8173537254333496], "min" : [-0.7604147791862488, -0.7457969188690186, 1.7596282958984375]}, {"bufferView" : 2, "byteOffset" : 12, "componentType" : 5126, "count" : 3072, "type" : "VEC3", "max" : [0.10138343274593353, 0.10944025218486786, 0.9948516488075256], "min" : [-0.11746679246425629, -0.10944025218486786, 0.9930810332298279]}, {"bufferView" : 2, "byteOffset" : 24, "componentType" : 5126, "count" : 3072, "type" : "VEC2", "max" : [0.9809515476226807, -0.4791392683982849], "min" : [0.47552528977394104, -0.9845737814903259]}, {"bufferView" : 0, "byteOffset" : 23040, "componentType" : 5123, "count" : 5376, "type" : "SCALAR", "max" : [5375], "min" : [0]}, {"bufferView" : 3, "byteOffset" : 0, "componentType" : 5126, "count" : 5376, "type" : "VEC3", "max" : [0.7311276793479919, 0.7457965016365051, 1.8173551559448242], "min" : [-0.7604147791862488, -0.7457970380783081, 1.6944226026535034]}, {"bufferView" : 3, "byteOffset" : 12, "componentType" : 5126, "count" : 5376, "type" : "VEC3", "max" : [0.2841331958770752, 0.2918815612792969, 0.9999718070030212], "min" : [-0.29960885643959045, -0.2918815612792969, 0.9540666341781616]}, {"bufferView" : 3, "byteOffset" : 24, "componentType" : 5126, "count" : 5376, "type" : "VEC2", "max" : [0.3669215440750122, -0.28889715671539307], "min" : [0.30308055877685547, -0.35273370146751404]}, {"bufferView" : 0, "byteOffset" : 33792, "componentType" : 5123, "count" : 39168, "type" : "SCALAR", "max" : [39167], "min" : [0]}, {"bufferView" : 4, "byteOffset" : 0, "componentType" : 5126, "count" : 39168, "type" : "VEC3", "max" : [1.9293951988220215, 1.9294373989105225, 1.8173542022705078], "min" : [-1.9293534755706787, -1.929437279701233, -1.9483858346939087]}, {"bufferView" : 4, "byteOffset" : 12, "componentType" : 5126, "count" : 39168, "type" : "VEC3", "max" : [0.999996542930603, 0.999995768070221, 0.8755451440811157], "min" : [-0.9999297857284546, -0.999995768070221, -0.999995231628418]}, {"bufferView" : 4, "byteOffset" : 24, "componentType" : 5126, "count" : 39168, "type" : "VEC2", "max" : [0.635588526725769, -0.013363402336835861], "min" : [0.02298203483223915, -0.6280902028083801]}], "asset" : {"generator" : "Aspose.3D 20.9.1", "version" : "2.0"}, "buffers" : [{"uri" : "buffer.bin", "byteLength" : 1906196}], "bufferViews" : [{"buffer" : 0, "byteOffset" : 0, "byteLength" : 112128, "target" : 34963}, {"buffer" : 0, "byteOffset" : 112132, "byteLength" : 270336, "byteStride" : 32, "target" : 34962}, {"buffer" : 0, "byteOffset" : 382472, "byteLength" : 98304, "byteStride" : 32, "target" : 34962}, {"buffer" : 0, "byteOffset" : 480780, "byteLength" : 172032, "byteStride" : 32, "target" : 34962}, {"buffer" : 0, "byteOffset" : 652816, "byteLength" : 1253376, "byteStride" : 32, "target" : 34962}], "images" : [{"uri" : "C:\\Users\\the3dpc\\Desktop\\Eyeball\\Eyeball\\textures\\Eye_N.jpg"}, {"uri" : "C:\\Users\\the3dpc\\Desktop\\Eyeball\\Eyeball\\textures\\Eye_D.jpg"}, {"uri" : "C:\\Users\\the3dpc\\Desktop\\Eyeball\\Eyeball\\textures\\Eye_N.jpg"}, {"uri" : "C:\\Users\\the3dpc\\Desktop\\Eyeball\\Eyeball\\textures\\Eye_D.jpg"}, {"uri" : "C:\\Users\\the3dpc\\Desktop\\Eyeball\\Eyeball\\textures\\Eye_D.jpg"}, {"uri" : "C:\\Users\\the3dpc\\Desktop\\Eyeball\\Eyeball\\textures\\Eye_N.jpg"}, {"uri" : "C:\\Users\\the3dpc\\Desktop\\Eyeball\\Eyeball\\textures\\Eye_D.jpg"}], "materials" : [{"pbrMetallicRoughness" : {"baseColorFactor" : [0, 0, 0, 1], "baseColorTexture" : {"index" : 1, "texCoord" : 0}, "metallicFactor" : 0, "roughnessFactor" : 0}, "normalTexture" : {"index" : 0, "texCoord" : 0, "scale" : 1}, "emissiveFactor" : [0, 0, 0], "alphaMode" : "OPAQUE", "doubleSided" : false}, {"pbrMetallicRoughness" : {"baseColorFactor" : [0, 0, 0, 1], "baseColorTexture" : {"index" : 3, "texCoord" : 0}, "metallicFactor" : 0, "roughnessFactor" : 0}, "normalTexture" : {"index" : 2, "texCoord" : 0, "scale" : 1}, "emissiveFactor" : [0, 0, 0], "alphaMode" : "OPAQUE", "doubleSided" : false}, {"pbrMetallicRoughness" : {"baseColorFactor" : [0, 0, 0, 1], "baseColorTexture" : {"index" : 4, "texCoord" : 0}, "metallicFactor" : 0, "roughnessFactor" : 0}, "emissiveFactor" : [0, 0, 0], "alphaMode" : "OPAQUE", "doubleSided" : false}, {"pbrMetallicRoughness" : {"baseColorFactor" : [0, 0, 0, 1], "baseColorTexture" : {"index" : 6, "texCoord" : 0}, "metallicFactor" : 0, "roughnessFactor" : 0}, "normalTexture" : {"index" : 5, "texCoord" : 0, "scale" : 1}, "emissiveFactor" : [0, 0, 0], "alphaMode" : "OPAQUE", "doubleSided" : false}], "meshes" : [{"primitives" : [{"attributes" : {"POSITION" : 1, "NORMAL" : 2, "TEXCOORD_0" : 3}, "indices" : 0, "material" : 0, "mode" : 4}]}, {"primitives" : [{"attributes" : {"POSITION" : 5, "NORMAL" : 6, "TEXCOORD_0" : 7}, "indices" : 4, "material" : 1, "mode" : 4}]}, {"primitives" : [{"attributes" : {"POSITION" : 9, "NORMAL" : 10, "TEXCOORD_0" : 11}, "indices" : 8, "material" : 2, "mode" : 4}]}, {"primitives" : [{"attributes" : {"POSITION" : 13, "NORMAL" : 14, "TEXCOORD_0" : 15}, "indices" : 12, "material" : 3, "mode" : 4}]}], "nodes" : [{"matrix" : [100, -2.2204460492503137E-14, -2.2204457845525174E-14, 0, 2.2204458816113107E-14, 99.99999999999972, -7.549790126404325E-06, 0, 2.2204459521915273E-14, 7.549790126404325E-06, 99.99999999999972, 0, 0, 0, 0, 1], "mesh" : 0, "name" : "eyeball_1.003"}, {"matrix" : [100, -2.2204460492503137E-14, -2.2204457845525174E-14, 0, 2.2204458816113107E-14, 99.99999999999972, -7.549790126404325E-06, 0, 2.2204459521915273E-14, 7.549790126404325E-06, 99.99999999999972, 0, 0, 0, 0, 1], "mesh" : 1, "name" : "eyeball_1.002"}, {"matrix" : [100, -2.2204460492503137E-14, -2.2204457845525174E-14, 0, 2.2204458816113107E-14, 99.99999999999972, -7.549790126404325E-06, 0, 2.2204459521915273E-14, 7.549790126404325E-06, 99.99999999999972, 0, 0, 0, 0, 1], "mesh" : 2, "name" : "eyeball_1.001"}, {"matrix" : [100, -2.2204460492503137E-14, -2.2204457845525174E-14, 0, 2.2204458816113107E-14, 99.99999999999972, -7.549790126404325E-06, 0, 2.2204459521915273E-14, 7.549790126404325E-06, 99.99999999999972, 0, 0, 0, 0, 1], "mesh" : 3, "name" : "eyeball_1"}], "samplers" : [{"magFilter" : 9729, "minFilter" : 9729, "wrapS" : 10497, "wrapT" : 10497}, {"magFilter" : 9729, "minFilter" : 9729, "wrapS" : 10497, "wrapT" : 10497}, {"magFilter" : 9729, "minFilter" : 9729, "wrapS" : 10497, "wrapT" : 10497}, {"magFilter" : 9729, "minFilter" : 9729, "wrapS" : 10497, "wrapT" : 10497}, {"magFilter" : 9729, "minFilter" : 9729, "wrapS" : 10497, "wrapT" : 10497}, {"magFilter" : 9729, "minFilter" : 9729, "wrapS" : 10497, "wrapT" : 10497}, {"magFilter" : 9729, "minFilter" : 9729, "wrapS" : 10497, "wrapT" : 10497}], "scene" : 0, "scenes" : [{"nodes" : [0, 1, 2, 3]}], "textures" : [{"sampler" : 0, "source" : 0}, {"sampler" : 1, "source" : 1}, {"sampler" : 2, "source" : 2}, {"sampler" : 3, "source" : 3}, {"sampler" : 4, "source" : 4}, {"sampler" : 5, "source" : 5}, {"sampler" : 6, "source" : 6}]}